<svg xmlns="http://www.w3.org/2000/svg" viewBox="0 0 39 39"><defs><style>.cls-1{fill:none;stroke:#505050;stroke-linejoin:round;stroke-width:2px;}</style></defs><g id="Layer_2" data-name="Layer 2"><g id="icons"><path class="cls-1" d="M36,38H3a2,2,0,0,1-2-2V3A2,2,0,0,1,3,1H33l5,5V36A2,2,0,0,1,36,38Z"/><path class="cls-1" d="M10,1H29a0,0,0,0,1,0,0V11a2,2,0,0,1-2,2H12a2,2,0,0,1-2-2V1A0,0,0,0,1,10,1Z"/><rect class="cls-1" x="8" y="24" width="23" height="14"/><line class="cls-1" x1="22" y1="13" x2="22" y2="1"/></g></g></svg>